{
    "accessors" : [
        {
            "bufferView" : 0, 
            "componentType" : 5123, 
            "count" : 960, 
            "max" : [
                959
            ], 
            "min" : [
                0
            ], 
            "type" : "SCALAR"
        }, 
        {
            "bufferView" : 1, 
            "componentType" : 5126, 
            "count" : 960, 
            "max" : [
                1.0, 
                1.0, 
                0.9999999403953552
            ], 
            "min" : [
                -0.9999999403953552, 
                -1.0, 
                -0.9999999403953552
            ], 
            "type" : "VEC3"
        }, 
        {
            "bufferView" : 2, 
            "componentType" : 5126, 
            "count" : 960, 
            "max" : [
                0.9854123592376709, 
                0.9877859354019165, 
                0.9846491813659668
            ], 
            "min" : [
                -0.9854124784469604, 
                -0.9877859354019165, 
                -0.9846491813659668
            ], 
            "type" : "VEC3"
        }, 
        {
            "bufferView" : 3, 
            "componentType" : 5126, 
            "count" : 960, 
            "max" : [
                0.9909948706626892, 
                0.8473865389823914, 
                0.9523028135299683, 
                1.0
            ], 
            "min" : [
                -0.9989394545555115, 
                -0.4728041887283325, 
                -0.9523030519485474, 
                1.0
            ], 
            "type" : "VEC4"
        }, 
        {
            "bufferView" : 4, 
            "componentType" : 5126, 
            "count" : 960, 
            "max" : [
                1.0, 
                1.0
            ], 
            "min" : [
                0.0, 
                0.0
            ], 
            "type" : "VEC2"
        }
    ], 
    "asset" : {
        "generator" : "Khronos Blender glTF 2.0 exporter", 
        "version" : "2.0"
    }, 
    "bufferViews" : [
        {
            "buffer" : 0, 
            "byteLength" : 1920, 
            "byteOffset" : 0, 
            "target" : 34963
        }, 
        {
            "buffer" : 0, 
            "byteLength" : 11520, 
            "byteOffset" : 1920, 
            "target" : 34962
        }, 
        {
            "buffer" : 0, 
            "byteLength" : 11520, 
            "byteOffset" : 13440, 
            "target" : 34962
        }, 
        {
            "buffer" : 0, 
            "byteLength" : 15360, 
            "byteOffset" : 24960, 
            "target" : 34962
        }, 
        {
            "buffer" : 0, 
            "byteLength" : 7680, 
            "byteOffset" : 40320, 
            "target" : 34962
        }
    ], 
    "buffers" : [
        {
            "byteLength" : 48000, 
            "uri" : "untitled.bin"
        }
    ], 
    "images" : [
        {
            "uri" : "glTF_Generated_Untitled.001.png"
        }
    ], 
    "materials" : [
        {
            "name" : "Material.001", 
            "pbrMetallicRoughness" : {
                "baseColorFactor" : [
                    0.6400000190734865, 
                    0.6400000190734865, 
                    0.6400000190734865, 
                    1.0
                ], 
                "baseColorTexture" : {
                    "index" : 0
                }, 
                "metallicFactor" : 0.0
            }
        }
    ], 
    "meshes" : [
        {
            "name" : "Icosphere", 
            "primitives" : [
                {
                    "attributes" : {
                        "NORMAL" : 2, 
                        "POSITION" : 1, 
                        "TANGENT" : 3, 
                        "TEXCOORD_0" : 4
                    }, 
                    "indices" : 0, 
                    "material" : 0
                }
            ]
        }
    ], 
    "nodes" : [
        {
            "name" : "Camera", 
            "rotation" : [
                0.483536034822464, 
                0.33687159419059753, 
                -0.20870360732078552, 
                0.7804827094078064
            ], 
            "translation" : [
                7.481131553649902, 
                5.34366512298584, 
                6.5076398849487305
            ]
        }, 
        {
            "mesh" : 0, 
            "name" : "Icosphere"
        }, 
        {
            "name" : "Lamp", 
            "rotation" : [
                0.16907575726509094, 
                0.7558802962303162, 
                -0.27217137813568115, 
                0.570947527885437
            ], 
            "scale" : [
                1.0, 
                1.0, 
                0.9999999403953552
            ], 
            "translation" : [
                4.076245307922363, 
                5.903861999511719, 
                -1.0054539442062378
            ]
        }
    ], 
    "samplers" : [
        {}
    ], 
    "scene" : 0, 
    "scenes" : [
        {
            "name" : "Scene", 
            "nodes" : [
                1, 
                2, 
                0
            ]
        }
    ], 
    "textures" : [
        {
            "sampler" : 0, 
            "source" : 0
        }
    ]
}
